<?xml version="1.0" standalone="no"?>
<!DOCTYPE svg PUBLIC "-//W3C//DTD SVG 20010904//EN"
 "http://www.w3.org/TR/2001/REC-SVG-20010904/DTD/svg10.dtd">
<svg version="1.0" xmlns="http://www.w3.org/2000/svg"
 width="16.000000pt" height="16.000000pt" viewBox="0 0 16.000000 16.000000"
 preserveAspectRatio="xMidYMid meet">

<g transform="translate(0.000000,16.000000) scale(0.100000,-0.100000)"
fill="#000000" stroke="none">
<path d="M0 80 l0 -80 80 0 80 0 0 80 0 80 -80 0 -80 0 0 -80z m110 40 c0 -5
-7 -10 -15 -10 -18 0 -20 -16 -2 -23 7 -3 5 -6 -5 -6 -11 -1 -18 -9 -18 -21 0
-11 -5 -20 -11 -20 -7 0 -9 9 -5 23 3 12 6 32 6 45 0 17 6 22 25 22 14 0 25
-4 25 -10z"/>
</g>
</svg>
